%TF.GenerationSoftware,KiCad,Pcbnew,7.0.7*%
%TF.CreationDate,2023-08-27T21:57:29-04:00*%
%TF.ProjectId,PicoMemcard-qtpyrp2040,5069636f-4d65-46d6-9361-72642d717470,1.3.1*%
%TF.SameCoordinates,Original*%
%TF.FileFunction,Component,L2,Bot*%
%TF.FilePolarity,Positive*%
%FSLAX46Y46*%
G04 Gerber Fmt 4.6, Leading zero omitted, Abs format (unit mm)*
G04 Created by KiCad (PCBNEW 7.0.7) date 2023-08-27 21:57:29*
%MOMM*%
%LPD*%
G01*
G04 APERTURE LIST*
%TA.AperFunction,ComponentMain*%
%ADD10C,0.300000*%
%TD*%
%TA.AperFunction,ComponentOutline,Footprint*%
%ADD11C,0.100000*%
%TD*%
%TA.AperFunction,ComponentPin*%
%ADD12P,0.360000X4X0.000000*%
%TD*%
%TA.AperFunction,ComponentPin*%
%ADD13C,0.000000*%
%TD*%
%TA.AperFunction,ComponentOutline,Courtyard*%
%ADD14C,0.100000*%
%TD*%
G04 APERTURE END LIST*
D10*
%TO.C,"SW3"*%
%TO.CFtp,"SW-SMD_4P-L5.1-W5.1-P3.70-LS6.5-TL-2"*%
%TO.CVal,"TS-1187A-B-A-B"*%
%TO.CLbN,"easyeda2kicad"*%
%TO.CMnt,SMD*%
%TO.CRot,-90*%
X138176000Y-109220000D03*
D11*
X140526000Y-113370000D02*
X135826000Y-113370000D01*
X135826000Y-105070000D01*
X140526000Y-105070000D01*
X140526000Y-113370000D01*
D12*
%TO.P,"SW3","1","A"*%
X140026000Y-112520000D03*
D13*
%TO.P,"SW3","2","B"*%
X140026000Y-105920000D03*
%TO.P,"SW3","3","C"*%
X136326000Y-112520000D03*
%TO.P,"SW3","4","D"*%
X136326000Y-105920000D03*
%TD*%
D10*
%TO.C,"SW1"*%
%TO.CFtp,"SW-SMD_4P-L5.1-W5.1-P3.70-LS6.5-TL-2"*%
%TO.CVal,"TS-1187A-B-A-B"*%
%TO.CLbN,"easyeda2kicad"*%
%TO.CMnt,SMD*%
%TO.CRot,-90*%
X138176000Y-88270000D03*
D11*
X140526000Y-92420000D02*
X135826000Y-92420000D01*
X135826000Y-84120000D01*
X140526000Y-84120000D01*
X140526000Y-92420000D01*
D12*
%TO.P,"SW1","1","A"*%
X140026000Y-91570000D03*
D13*
%TO.P,"SW1","2","B"*%
X140026000Y-84970000D03*
%TO.P,"SW1","3","C"*%
X136326000Y-91570000D03*
%TO.P,"SW1","4","D"*%
X136326000Y-84970000D03*
%TD*%
D10*
%TO.C,"SW2"*%
%TO.CFtp,"SW-SMD_4P-L5.1-W5.1-P3.70-LS6.5-TL-2"*%
%TO.CVal,"TS-1187A-B-A-B"*%
%TO.CLbN,"easyeda2kicad"*%
%TO.CMnt,SMD*%
%TO.CRot,-90*%
X138176000Y-98860000D03*
D11*
X140526000Y-103010000D02*
X135826000Y-103010000D01*
X135826000Y-94710000D01*
X140526000Y-94710000D01*
X140526000Y-103010000D01*
D12*
%TO.P,"SW2","1","A"*%
X140026000Y-102160000D03*
D13*
%TO.P,"SW2","2","B"*%
X140026000Y-95560000D03*
%TO.P,"SW2","3","C"*%
X136326000Y-102160000D03*
%TO.P,"SW2","4","D"*%
X136326000Y-95560000D03*
%TD*%
D10*
%TO.C,"J2"*%
%TO.CFtp,"MicroSD_SPI_small"*%
%TO.CVal,"MicroSD SPI"*%
%TO.CLbN,"254"*%
%TO.CMnt,SMD*%
%TO.CRot,-90*%
X151672000Y-98448000D03*
D14*
X159671999Y-94848001D02*
X159671999Y-114447999D01*
X141572001Y-114447999D01*
X141572001Y-94848001D01*
X159671999Y-94848001D01*
D12*
%TO.P,"J2","1","Pin_1"*%
X145372000Y-97248000D03*
D13*
%TO.P,"J2","2","Pin_2"*%
X147872000Y-97248000D03*
%TO.P,"J2","3","Pin_3"*%
X150372000Y-97248000D03*
%TO.P,"J2","4","Pin_4"*%
X152872000Y-97248000D03*
%TO.P,"J2","5","Pin_5"*%
X155372000Y-97248000D03*
%TO.P,"J2","6","Pin_6"*%
X157872000Y-97248000D03*
%TD*%
M02*
