%TF.GenerationSoftware,KiCad,Pcbnew,7.0.7*%
%TF.CreationDate,2023-08-27T21:45:09-04:00*%
%TF.ProjectId,PicoMemcard-qtpyrp2040,5069636f-4d65-46d6-9361-72642d717470,1.3.1*%
%TF.SameCoordinates,Original*%
%TF.FileFunction,Legend,Bot*%
%TF.FilePolarity,Positive*%
%FSLAX46Y46*%
G04 Gerber Fmt 4.6, Leading zero omitted, Abs format (unit mm)*
G04 Created by KiCad (PCBNEW 7.0.7) date 2023-08-27 21:45:09*
%MOMM*%
%LPD*%
G01*
G04 APERTURE LIST*
%ADD10C,0.150000*%
%ADD11C,0.100000*%
%ADD12C,0.250000*%
%ADD13C,0.160000*%
%ADD14C,0.120000*%
G04 APERTURE END LIST*
D10*
X139509332Y-109627200D02*
X139366475Y-109674819D01*
X139366475Y-109674819D02*
X139128380Y-109674819D01*
X139128380Y-109674819D02*
X139033142Y-109627200D01*
X139033142Y-109627200D02*
X138985523Y-109579580D01*
X138985523Y-109579580D02*
X138937904Y-109484342D01*
X138937904Y-109484342D02*
X138937904Y-109389104D01*
X138937904Y-109389104D02*
X138985523Y-109293866D01*
X138985523Y-109293866D02*
X139033142Y-109246247D01*
X139033142Y-109246247D02*
X139128380Y-109198628D01*
X139128380Y-109198628D02*
X139318856Y-109151009D01*
X139318856Y-109151009D02*
X139414094Y-109103390D01*
X139414094Y-109103390D02*
X139461713Y-109055771D01*
X139461713Y-109055771D02*
X139509332Y-108960533D01*
X139509332Y-108960533D02*
X139509332Y-108865295D01*
X139509332Y-108865295D02*
X139461713Y-108770057D01*
X139461713Y-108770057D02*
X139414094Y-108722438D01*
X139414094Y-108722438D02*
X139318856Y-108674819D01*
X139318856Y-108674819D02*
X139080761Y-108674819D01*
X139080761Y-108674819D02*
X138937904Y-108722438D01*
X138604570Y-108674819D02*
X138366475Y-109674819D01*
X138366475Y-109674819D02*
X138175999Y-108960533D01*
X138175999Y-108960533D02*
X137985523Y-109674819D01*
X137985523Y-109674819D02*
X137747428Y-108674819D01*
X137461713Y-108674819D02*
X136842666Y-108674819D01*
X136842666Y-108674819D02*
X137175999Y-109055771D01*
X137175999Y-109055771D02*
X137033142Y-109055771D01*
X137033142Y-109055771D02*
X136937904Y-109103390D01*
X136937904Y-109103390D02*
X136890285Y-109151009D01*
X136890285Y-109151009D02*
X136842666Y-109246247D01*
X136842666Y-109246247D02*
X136842666Y-109484342D01*
X136842666Y-109484342D02*
X136890285Y-109579580D01*
X136890285Y-109579580D02*
X136937904Y-109627200D01*
X136937904Y-109627200D02*
X137033142Y-109674819D01*
X137033142Y-109674819D02*
X137318856Y-109674819D01*
X137318856Y-109674819D02*
X137414094Y-109627200D01*
X137414094Y-109627200D02*
X137461713Y-109579580D01*
X139469332Y-88757200D02*
X139326475Y-88804819D01*
X139326475Y-88804819D02*
X139088380Y-88804819D01*
X139088380Y-88804819D02*
X138993142Y-88757200D01*
X138993142Y-88757200D02*
X138945523Y-88709580D01*
X138945523Y-88709580D02*
X138897904Y-88614342D01*
X138897904Y-88614342D02*
X138897904Y-88519104D01*
X138897904Y-88519104D02*
X138945523Y-88423866D01*
X138945523Y-88423866D02*
X138993142Y-88376247D01*
X138993142Y-88376247D02*
X139088380Y-88328628D01*
X139088380Y-88328628D02*
X139278856Y-88281009D01*
X139278856Y-88281009D02*
X139374094Y-88233390D01*
X139374094Y-88233390D02*
X139421713Y-88185771D01*
X139421713Y-88185771D02*
X139469332Y-88090533D01*
X139469332Y-88090533D02*
X139469332Y-87995295D01*
X139469332Y-87995295D02*
X139421713Y-87900057D01*
X139421713Y-87900057D02*
X139374094Y-87852438D01*
X139374094Y-87852438D02*
X139278856Y-87804819D01*
X139278856Y-87804819D02*
X139040761Y-87804819D01*
X139040761Y-87804819D02*
X138897904Y-87852438D01*
X138564570Y-87804819D02*
X138326475Y-88804819D01*
X138326475Y-88804819D02*
X138135999Y-88090533D01*
X138135999Y-88090533D02*
X137945523Y-88804819D01*
X137945523Y-88804819D02*
X137707428Y-87804819D01*
X136802666Y-88804819D02*
X137374094Y-88804819D01*
X137088380Y-88804819D02*
X137088380Y-87804819D01*
X137088380Y-87804819D02*
X137183618Y-87947676D01*
X137183618Y-87947676D02*
X137278856Y-88042914D01*
X137278856Y-88042914D02*
X137374094Y-88090533D01*
X139509332Y-99267200D02*
X139366475Y-99314819D01*
X139366475Y-99314819D02*
X139128380Y-99314819D01*
X139128380Y-99314819D02*
X139033142Y-99267200D01*
X139033142Y-99267200D02*
X138985523Y-99219580D01*
X138985523Y-99219580D02*
X138937904Y-99124342D01*
X138937904Y-99124342D02*
X138937904Y-99029104D01*
X138937904Y-99029104D02*
X138985523Y-98933866D01*
X138985523Y-98933866D02*
X139033142Y-98886247D01*
X139033142Y-98886247D02*
X139128380Y-98838628D01*
X139128380Y-98838628D02*
X139318856Y-98791009D01*
X139318856Y-98791009D02*
X139414094Y-98743390D01*
X139414094Y-98743390D02*
X139461713Y-98695771D01*
X139461713Y-98695771D02*
X139509332Y-98600533D01*
X139509332Y-98600533D02*
X139509332Y-98505295D01*
X139509332Y-98505295D02*
X139461713Y-98410057D01*
X139461713Y-98410057D02*
X139414094Y-98362438D01*
X139414094Y-98362438D02*
X139318856Y-98314819D01*
X139318856Y-98314819D02*
X139080761Y-98314819D01*
X139080761Y-98314819D02*
X138937904Y-98362438D01*
X138604570Y-98314819D02*
X138366475Y-99314819D01*
X138366475Y-99314819D02*
X138175999Y-98600533D01*
X138175999Y-98600533D02*
X137985523Y-99314819D01*
X137985523Y-99314819D02*
X137747428Y-98314819D01*
X137414094Y-98410057D02*
X137366475Y-98362438D01*
X137366475Y-98362438D02*
X137271237Y-98314819D01*
X137271237Y-98314819D02*
X137033142Y-98314819D01*
X137033142Y-98314819D02*
X136937904Y-98362438D01*
X136937904Y-98362438D02*
X136890285Y-98410057D01*
X136890285Y-98410057D02*
X136842666Y-98505295D01*
X136842666Y-98505295D02*
X136842666Y-98600533D01*
X136842666Y-98600533D02*
X136890285Y-98743390D01*
X136890285Y-98743390D02*
X137461713Y-99314819D01*
X137461713Y-99314819D02*
X136842666Y-99314819D01*
X157226819Y-105214666D02*
X157941104Y-105214666D01*
X157941104Y-105214666D02*
X158083961Y-105167047D01*
X158083961Y-105167047D02*
X158179200Y-105071809D01*
X158179200Y-105071809D02*
X158226819Y-104928952D01*
X158226819Y-104928952D02*
X158226819Y-104833714D01*
X157322057Y-105643238D02*
X157274438Y-105690857D01*
X157274438Y-105690857D02*
X157226819Y-105786095D01*
X157226819Y-105786095D02*
X157226819Y-106024190D01*
X157226819Y-106024190D02*
X157274438Y-106119428D01*
X157274438Y-106119428D02*
X157322057Y-106167047D01*
X157322057Y-106167047D02*
X157417295Y-106214666D01*
X157417295Y-106214666D02*
X157512533Y-106214666D01*
X157512533Y-106214666D02*
X157655390Y-106167047D01*
X157655390Y-106167047D02*
X158226819Y-105595619D01*
X158226819Y-105595619D02*
X158226819Y-106214666D01*
D11*
X152769700Y-101290856D02*
X152745890Y-101219428D01*
X152745890Y-101219428D02*
X152745890Y-101100380D01*
X152745890Y-101100380D02*
X152769700Y-101052761D01*
X152769700Y-101052761D02*
X152793509Y-101028952D01*
X152793509Y-101028952D02*
X152841128Y-101005142D01*
X152841128Y-101005142D02*
X152888747Y-101005142D01*
X152888747Y-101005142D02*
X152936366Y-101028952D01*
X152936366Y-101028952D02*
X152960176Y-101052761D01*
X152960176Y-101052761D02*
X152983985Y-101100380D01*
X152983985Y-101100380D02*
X153007795Y-101195618D01*
X153007795Y-101195618D02*
X153031604Y-101243237D01*
X153031604Y-101243237D02*
X153055414Y-101267047D01*
X153055414Y-101267047D02*
X153103033Y-101290856D01*
X153103033Y-101290856D02*
X153150652Y-101290856D01*
X153150652Y-101290856D02*
X153198271Y-101267047D01*
X153198271Y-101267047D02*
X153222080Y-101243237D01*
X153222080Y-101243237D02*
X153245890Y-101195618D01*
X153245890Y-101195618D02*
X153245890Y-101076571D01*
X153245890Y-101076571D02*
X153222080Y-101005142D01*
X152793509Y-100505143D02*
X152769700Y-100528952D01*
X152769700Y-100528952D02*
X152745890Y-100600381D01*
X152745890Y-100600381D02*
X152745890Y-100648000D01*
X152745890Y-100648000D02*
X152769700Y-100719428D01*
X152769700Y-100719428D02*
X152817319Y-100767047D01*
X152817319Y-100767047D02*
X152864938Y-100790857D01*
X152864938Y-100790857D02*
X152960176Y-100814666D01*
X152960176Y-100814666D02*
X153031604Y-100814666D01*
X153031604Y-100814666D02*
X153126842Y-100790857D01*
X153126842Y-100790857D02*
X153174461Y-100767047D01*
X153174461Y-100767047D02*
X153222080Y-100719428D01*
X153222080Y-100719428D02*
X153245890Y-100648000D01*
X153245890Y-100648000D02*
X153245890Y-100600381D01*
X153245890Y-100600381D02*
X153222080Y-100528952D01*
X153222080Y-100528952D02*
X153198271Y-100505143D01*
X152745890Y-100290857D02*
X153245890Y-100290857D01*
X152745890Y-100005143D02*
X153031604Y-100219428D01*
X153245890Y-100005143D02*
X152960176Y-100290857D01*
X155145890Y-101433714D02*
X155645890Y-101433714D01*
X155645890Y-101433714D02*
X155288747Y-101267047D01*
X155288747Y-101267047D02*
X155645890Y-101100381D01*
X155645890Y-101100381D02*
X155145890Y-101100381D01*
X155145890Y-100862285D02*
X155645890Y-100862285D01*
X155169700Y-100647999D02*
X155145890Y-100576571D01*
X155145890Y-100576571D02*
X155145890Y-100457523D01*
X155145890Y-100457523D02*
X155169700Y-100409904D01*
X155169700Y-100409904D02*
X155193509Y-100386095D01*
X155193509Y-100386095D02*
X155241128Y-100362285D01*
X155241128Y-100362285D02*
X155288747Y-100362285D01*
X155288747Y-100362285D02*
X155336366Y-100386095D01*
X155336366Y-100386095D02*
X155360176Y-100409904D01*
X155360176Y-100409904D02*
X155383985Y-100457523D01*
X155383985Y-100457523D02*
X155407795Y-100552761D01*
X155407795Y-100552761D02*
X155431604Y-100600380D01*
X155431604Y-100600380D02*
X155455414Y-100624190D01*
X155455414Y-100624190D02*
X155503033Y-100647999D01*
X155503033Y-100647999D02*
X155550652Y-100647999D01*
X155550652Y-100647999D02*
X155598271Y-100624190D01*
X155598271Y-100624190D02*
X155622080Y-100600380D01*
X155622080Y-100600380D02*
X155645890Y-100552761D01*
X155645890Y-100552761D02*
X155645890Y-100433714D01*
X155645890Y-100433714D02*
X155622080Y-100362285D01*
X155645890Y-100052762D02*
X155645890Y-99957524D01*
X155645890Y-99957524D02*
X155622080Y-99909905D01*
X155622080Y-99909905D02*
X155574461Y-99862286D01*
X155574461Y-99862286D02*
X155479223Y-99838476D01*
X155479223Y-99838476D02*
X155312557Y-99838476D01*
X155312557Y-99838476D02*
X155217319Y-99862286D01*
X155217319Y-99862286D02*
X155169700Y-99909905D01*
X155169700Y-99909905D02*
X155145890Y-99957524D01*
X155145890Y-99957524D02*
X155145890Y-100052762D01*
X155145890Y-100052762D02*
X155169700Y-100100381D01*
X155169700Y-100100381D02*
X155217319Y-100148000D01*
X155217319Y-100148000D02*
X155312557Y-100171809D01*
X155312557Y-100171809D02*
X155479223Y-100171809D01*
X155479223Y-100171809D02*
X155574461Y-100148000D01*
X155574461Y-100148000D02*
X155622080Y-100100381D01*
X155622080Y-100100381D02*
X155645890Y-100052762D01*
X147693509Y-100631333D02*
X147669700Y-100655142D01*
X147669700Y-100655142D02*
X147645890Y-100726571D01*
X147645890Y-100726571D02*
X147645890Y-100774190D01*
X147645890Y-100774190D02*
X147669700Y-100845618D01*
X147669700Y-100845618D02*
X147717319Y-100893237D01*
X147717319Y-100893237D02*
X147764938Y-100917047D01*
X147764938Y-100917047D02*
X147860176Y-100940856D01*
X147860176Y-100940856D02*
X147931604Y-100940856D01*
X147931604Y-100940856D02*
X148026842Y-100917047D01*
X148026842Y-100917047D02*
X148074461Y-100893237D01*
X148074461Y-100893237D02*
X148122080Y-100845618D01*
X148122080Y-100845618D02*
X148145890Y-100774190D01*
X148145890Y-100774190D02*
X148145890Y-100726571D01*
X148145890Y-100726571D02*
X148122080Y-100655142D01*
X148122080Y-100655142D02*
X148098271Y-100631333D01*
X147669700Y-100440856D02*
X147645890Y-100369428D01*
X147645890Y-100369428D02*
X147645890Y-100250380D01*
X147645890Y-100250380D02*
X147669700Y-100202761D01*
X147669700Y-100202761D02*
X147693509Y-100178952D01*
X147693509Y-100178952D02*
X147741128Y-100155142D01*
X147741128Y-100155142D02*
X147788747Y-100155142D01*
X147788747Y-100155142D02*
X147836366Y-100178952D01*
X147836366Y-100178952D02*
X147860176Y-100202761D01*
X147860176Y-100202761D02*
X147883985Y-100250380D01*
X147883985Y-100250380D02*
X147907795Y-100345618D01*
X147907795Y-100345618D02*
X147931604Y-100393237D01*
X147931604Y-100393237D02*
X147955414Y-100417047D01*
X147955414Y-100417047D02*
X148003033Y-100440856D01*
X148003033Y-100440856D02*
X148050652Y-100440856D01*
X148050652Y-100440856D02*
X148098271Y-100417047D01*
X148098271Y-100417047D02*
X148122080Y-100393237D01*
X148122080Y-100393237D02*
X148145890Y-100345618D01*
X148145890Y-100345618D02*
X148145890Y-100226571D01*
X148145890Y-100226571D02*
X148122080Y-100155142D01*
X150145890Y-101433714D02*
X150645890Y-101433714D01*
X150645890Y-101433714D02*
X150288747Y-101267047D01*
X150288747Y-101267047D02*
X150645890Y-101100381D01*
X150645890Y-101100381D02*
X150145890Y-101100381D01*
X150645890Y-100767047D02*
X150645890Y-100671809D01*
X150645890Y-100671809D02*
X150622080Y-100624190D01*
X150622080Y-100624190D02*
X150574461Y-100576571D01*
X150574461Y-100576571D02*
X150479223Y-100552761D01*
X150479223Y-100552761D02*
X150312557Y-100552761D01*
X150312557Y-100552761D02*
X150217319Y-100576571D01*
X150217319Y-100576571D02*
X150169700Y-100624190D01*
X150169700Y-100624190D02*
X150145890Y-100671809D01*
X150145890Y-100671809D02*
X150145890Y-100767047D01*
X150145890Y-100767047D02*
X150169700Y-100814666D01*
X150169700Y-100814666D02*
X150217319Y-100862285D01*
X150217319Y-100862285D02*
X150312557Y-100886094D01*
X150312557Y-100886094D02*
X150479223Y-100886094D01*
X150479223Y-100886094D02*
X150574461Y-100862285D01*
X150574461Y-100862285D02*
X150622080Y-100814666D01*
X150622080Y-100814666D02*
X150645890Y-100767047D01*
X150169700Y-100362284D02*
X150145890Y-100290856D01*
X150145890Y-100290856D02*
X150145890Y-100171808D01*
X150145890Y-100171808D02*
X150169700Y-100124189D01*
X150169700Y-100124189D02*
X150193509Y-100100380D01*
X150193509Y-100100380D02*
X150241128Y-100076570D01*
X150241128Y-100076570D02*
X150288747Y-100076570D01*
X150288747Y-100076570D02*
X150336366Y-100100380D01*
X150336366Y-100100380D02*
X150360176Y-100124189D01*
X150360176Y-100124189D02*
X150383985Y-100171808D01*
X150383985Y-100171808D02*
X150407795Y-100267046D01*
X150407795Y-100267046D02*
X150431604Y-100314665D01*
X150431604Y-100314665D02*
X150455414Y-100338475D01*
X150455414Y-100338475D02*
X150503033Y-100362284D01*
X150503033Y-100362284D02*
X150550652Y-100362284D01*
X150550652Y-100362284D02*
X150598271Y-100338475D01*
X150598271Y-100338475D02*
X150622080Y-100314665D01*
X150622080Y-100314665D02*
X150645890Y-100267046D01*
X150645890Y-100267046D02*
X150645890Y-100147999D01*
X150645890Y-100147999D02*
X150622080Y-100076570D01*
X150145890Y-99862285D02*
X150645890Y-99862285D01*
X158122080Y-101028952D02*
X158145890Y-101076571D01*
X158145890Y-101076571D02*
X158145890Y-101148000D01*
X158145890Y-101148000D02*
X158122080Y-101219428D01*
X158122080Y-101219428D02*
X158074461Y-101267047D01*
X158074461Y-101267047D02*
X158026842Y-101290857D01*
X158026842Y-101290857D02*
X157931604Y-101314666D01*
X157931604Y-101314666D02*
X157860176Y-101314666D01*
X157860176Y-101314666D02*
X157764938Y-101290857D01*
X157764938Y-101290857D02*
X157717319Y-101267047D01*
X157717319Y-101267047D02*
X157669700Y-101219428D01*
X157669700Y-101219428D02*
X157645890Y-101148000D01*
X157645890Y-101148000D02*
X157645890Y-101100381D01*
X157645890Y-101100381D02*
X157669700Y-101028952D01*
X157669700Y-101028952D02*
X157693509Y-101005143D01*
X157693509Y-101005143D02*
X157860176Y-101005143D01*
X157860176Y-101005143D02*
X157860176Y-101100381D01*
X157645890Y-100790857D02*
X158145890Y-100790857D01*
X158145890Y-100790857D02*
X157645890Y-100505143D01*
X157645890Y-100505143D02*
X158145890Y-100505143D01*
X157645890Y-100267047D02*
X158145890Y-100267047D01*
X158145890Y-100267047D02*
X158145890Y-100147999D01*
X158145890Y-100147999D02*
X158122080Y-100076571D01*
X158122080Y-100076571D02*
X158074461Y-100028952D01*
X158074461Y-100028952D02*
X158026842Y-100005142D01*
X158026842Y-100005142D02*
X157931604Y-99981333D01*
X157931604Y-99981333D02*
X157860176Y-99981333D01*
X157860176Y-99981333D02*
X157764938Y-100005142D01*
X157764938Y-100005142D02*
X157717319Y-100028952D01*
X157717319Y-100028952D02*
X157669700Y-100076571D01*
X157669700Y-100076571D02*
X157645890Y-100147999D01*
X157645890Y-100147999D02*
X157645890Y-100267047D01*
X145645890Y-101243237D02*
X145645890Y-100933713D01*
X145645890Y-100933713D02*
X145455414Y-101100380D01*
X145455414Y-101100380D02*
X145455414Y-101028951D01*
X145455414Y-101028951D02*
X145431604Y-100981332D01*
X145431604Y-100981332D02*
X145407795Y-100957523D01*
X145407795Y-100957523D02*
X145360176Y-100933713D01*
X145360176Y-100933713D02*
X145241128Y-100933713D01*
X145241128Y-100933713D02*
X145193509Y-100957523D01*
X145193509Y-100957523D02*
X145169700Y-100981332D01*
X145169700Y-100981332D02*
X145145890Y-101028951D01*
X145145890Y-101028951D02*
X145145890Y-101171808D01*
X145145890Y-101171808D02*
X145169700Y-101219427D01*
X145169700Y-101219427D02*
X145193509Y-101243237D01*
X145479223Y-100767047D02*
X145145890Y-100647999D01*
X145145890Y-100647999D02*
X145479223Y-100528952D01*
X145645890Y-100386095D02*
X145645890Y-100076571D01*
X145645890Y-100076571D02*
X145455414Y-100243238D01*
X145455414Y-100243238D02*
X145455414Y-100171809D01*
X145455414Y-100171809D02*
X145431604Y-100124190D01*
X145431604Y-100124190D02*
X145407795Y-100100381D01*
X145407795Y-100100381D02*
X145360176Y-100076571D01*
X145360176Y-100076571D02*
X145241128Y-100076571D01*
X145241128Y-100076571D02*
X145193509Y-100100381D01*
X145193509Y-100100381D02*
X145169700Y-100124190D01*
X145169700Y-100124190D02*
X145145890Y-100171809D01*
X145145890Y-100171809D02*
X145145890Y-100314666D01*
X145145890Y-100314666D02*
X145169700Y-100362285D01*
X145169700Y-100362285D02*
X145193509Y-100386095D01*
D12*
%TO.C,SW3*%
X139346000Y-111770000D02*
X137006000Y-111770000D01*
X136516000Y-111390000D02*
X135626000Y-110500000D01*
X137176000Y-111020000D02*
X139176000Y-111020000D01*
X139176000Y-111020000D02*
X139976000Y-110220000D01*
X135626000Y-110500000D02*
X135626000Y-107940000D01*
X140726000Y-110500000D02*
X139836000Y-111390000D01*
X140726000Y-110500000D02*
X140726000Y-107940000D01*
X139976000Y-110220000D02*
X139976000Y-108320000D01*
X136276000Y-110120000D02*
X137176000Y-111020000D01*
X136276000Y-108420000D02*
X136276000Y-110120000D01*
X139976000Y-108320000D02*
X139076000Y-107420000D01*
X140726000Y-107940000D02*
X139836000Y-107050000D01*
X137276000Y-107420000D02*
X136276000Y-108420000D01*
X139076000Y-107420000D02*
X137276000Y-107420000D01*
X136516000Y-107050000D02*
X135626000Y-107940000D01*
X139346000Y-106670000D02*
X137006000Y-106670000D01*
D13*
X140856000Y-112520000D02*
G75*
G03*
X140856000Y-112520000I-80000J0D01*
G01*
D12*
X139456000Y-109220000D02*
G75*
G03*
X139456000Y-109220000I-1280000J0D01*
G01*
%TO.C,SW1*%
X139346000Y-90820000D02*
X137006000Y-90820000D01*
X136516000Y-90440000D02*
X135626000Y-89550000D01*
X137176000Y-90070000D02*
X139176000Y-90070000D01*
X139176000Y-90070000D02*
X139976000Y-89270000D01*
X135626000Y-89550000D02*
X135626000Y-86990000D01*
X140726000Y-89550000D02*
X139836000Y-90440000D01*
X140726000Y-89550000D02*
X140726000Y-86990000D01*
X139976000Y-89270000D02*
X139976000Y-87370000D01*
X136276000Y-89170000D02*
X137176000Y-90070000D01*
X136276000Y-87470000D02*
X136276000Y-89170000D01*
X139976000Y-87370000D02*
X139076000Y-86470000D01*
X140726000Y-86990000D02*
X139836000Y-86100000D01*
X137276000Y-86470000D02*
X136276000Y-87470000D01*
X139076000Y-86470000D02*
X137276000Y-86470000D01*
X136516000Y-86100000D02*
X135626000Y-86990000D01*
X139346000Y-85720000D02*
X137006000Y-85720000D01*
D13*
X140856000Y-91570000D02*
G75*
G03*
X140856000Y-91570000I-80000J0D01*
G01*
D12*
X139456000Y-88270000D02*
G75*
G03*
X139456000Y-88270000I-1280000J0D01*
G01*
%TO.C,SW2*%
X139346000Y-101410000D02*
X137006000Y-101410000D01*
X136516000Y-101030000D02*
X135626000Y-100140000D01*
X137176000Y-100660000D02*
X139176000Y-100660000D01*
X139176000Y-100660000D02*
X139976000Y-99860000D01*
X135626000Y-100140000D02*
X135626000Y-97580000D01*
X140726000Y-100140000D02*
X139836000Y-101030000D01*
X140726000Y-100140000D02*
X140726000Y-97580000D01*
X139976000Y-99860000D02*
X139976000Y-97960000D01*
X136276000Y-99760000D02*
X137176000Y-100660000D01*
X136276000Y-98060000D02*
X136276000Y-99760000D01*
X139976000Y-97960000D02*
X139076000Y-97060000D01*
X140726000Y-97580000D02*
X139836000Y-96690000D01*
X137276000Y-97060000D02*
X136276000Y-98060000D01*
X139076000Y-97060000D02*
X137276000Y-97060000D01*
X136516000Y-96690000D02*
X135626000Y-97580000D01*
X139346000Y-96310000D02*
X137006000Y-96310000D01*
D13*
X140856000Y-102160000D02*
G75*
G03*
X140856000Y-102160000I-80000J0D01*
G01*
D12*
X139456000Y-98860000D02*
G75*
G03*
X139456000Y-98860000I-1280000J0D01*
G01*
D14*
%TO.C,J2*%
X159572000Y-114348000D02*
X141672000Y-114348000D01*
X159572000Y-114348000D02*
X159572000Y-94948000D01*
X141672000Y-94948000D02*
X141672000Y-114348000D01*
X141672000Y-94948000D02*
X159572000Y-94948000D01*
X158972000Y-114348000D02*
X144172000Y-114348000D01*
X144172000Y-114348000D02*
X144172000Y-99548000D01*
X144172000Y-99548000D02*
X158972000Y-99548000D01*
X158972000Y-99548000D02*
X158972000Y-114348000D01*
%TD*%
M02*
