M48
; DRILL file {KiCad 7.0.7} date Sun 27 Aug 2023 09:45:16 PM EDT
; FORMAT={-:-/ absolute / inch / decimal}
; #@! TF.CreationDate,2023-08-27T21:45:16-04:00
; #@! TF.GenerationSoftware,Kicad,Pcbnew,7.0.7
; #@! TF.FileFunction,Plated,1,2,PTH
FMAT,2
INCH
; #@! TA.AperFunction,Plated,PTH,ViaDrill
T1C0.0157
; #@! TA.AperFunction,Plated,PTH,ComponentDrill
T2C0.0472
%
G90
G05
T1
X5.3626Y-4.0961
X5.6498Y-2.93
X5.7677Y-4.4882
X5.8201Y-2.828
X5.9104Y-2.82
X6.0242Y-3.7242
X6.1174Y-3.8272
X6.2151Y-3.7087
X6.2714Y-2.8263
T2
X5.8618Y-3.0378
X5.8618Y-3.6378
X5.9618Y-3.0378
X5.9618Y-3.6378
X6.0618Y-3.0378
X6.0618Y-3.6378
X6.1618Y-3.0378
X6.1618Y-3.6378
X6.2618Y-3.0378
X6.2618Y-3.6378
X6.3618Y-3.0378
X6.3618Y-3.6378
X6.4618Y-3.0378
X6.4618Y-3.6378
T0
M30
